<?xml version="1.0" standalone="no"?>
<!DOCTYPE svg PUBLIC "-//W3C//DTD SVG 20010904//EN"
 "http://www.w3.org/TR/2001/REC-SVG-20010904/DTD/svg10.dtd">
<svg version="1.0" xmlns="http://www.w3.org/2000/svg"
 width="900.000000pt" height="930.000000pt" viewBox="0 0 900.000000 930.000000"
 preserveAspectRatio="xMidYMid meet">
<metadata>
Created by potrace 1.10, written by Peter Selinger 2001-2011
</metadata>
<g transform="translate(0.000000,930.000000) scale(0.100000,-0.100000)"
fill="#000000" stroke="none">
<path d="M5688 9000 c-51 -27 -75 -66 -88 -141 -7 -35 -18 -98 -25 -139 -8
-41 -19 -104 -25 -139 -21 -124 -27 -128 -182 -102 -116 19 -155 25 -353 52
-44 6 -182 13 -307 16 -385 9 -711 -29 -1098 -130 -97 -26 -347 -112 -387
-135 -12 -7 -27 -12 -32 -12 -16 0 -336 -156 -406 -198 -331 -198 -518 -343
-780 -606 -105 -105 -206 -211 -225 -235 -19 -24 -58 -72 -85 -105 -130 -157
-299 -423 -412 -647 -34 -70 -63 -129 -63 -133 0 -3 -11 -29 -25 -58 -67 -145
-164 -441 -201 -618 -66 -307 -77 -404 -78 -707 l-1 -262 30 -30 c39 -42 94
-56 148 -39 60 19 76 49 93 169 55 401 63 440 154 744 72 241 251 604 417 845
237 345 527 639 854 865 200 138 459 278 665 359 89 35 290 98 409 129 33 9
80 21 105 28 25 6 74 15 110 19 36 4 97 12 135 18 250 41 711 37 945 -7 36 -7
101 -19 145 -27 44 -9 94 -19 110 -24 17 -5 46 -11 65 -15 19 -4 43 -14 52
-23 22 -19 19 -46 -37 -314 -8 -40 -15 -101 -15 -135 0 -52 4 -66 26 -93 64
-76 138 -79 254 -10 25 15 101 57 170 93 69 35 197 104 285 152 215 118 237
130 410 220 182 95 218 122 240 179 26 66 10 106 -98 243 -51 65 -111 143
-134 173 -23 30 -141 183 -263 340 -122 157 -245 316 -273 353 -76 103 -147
130 -229 87z"/>
<path d="M6584 7246 c-29 -29 -34 -41 -34 -80 0 -52 28 -90 115 -159 75 -58
267 -250 349 -347 70 -82 152 -190 246 -322 76 -106 152 -122 216 -45 38 45
31 108 -22 179 -22 29 -52 71 -66 93 -30 44 -148 195 -206 264 -69 82 -345
352 -411 402 -55 41 -72 49 -109 49 -37 0 -50 -6 -78 -34z"/>
<path d="M3489 6140 c-88 -15 -163 -71 -207 -154 l-27 -51 0 -1305 0 -1305 27
-50 c59 -112 154 -169 280 -168 74 0 79 2 200 65 68 36 152 83 188 105 36 22
88 52 115 68 28 15 88 49 135 75 47 26 131 75 188 109 57 33 105 61 107 61 2
0 68 37 147 83 78 46 181 105 228 132 113 65 401 233 420 245 8 5 29 17 45 26
17 9 104 60 195 114 91 53 201 118 246 144 138 79 201 162 211 277 8 86 -26
188 -82 245 -18 19 -80 62 -130 90 -207 115 -520 292 -593 335 -45 27 -85 49
-87 49 -3 0 -42 22 -87 49 -79 46 -559 320 -643 366 -22 13 -155 87 -295 165
-400 224 -407 227 -475 233 -33 3 -81 2 -106 -3z"/>
<path d="M7860 4553 c-34 -6 -77 -49 -89 -87 -5 -17 -14 -76 -20 -131 -24
-198 -47 -331 -85 -475 -8 -30 -21 -80 -29 -110 -27 -103 -55 -180 -132 -365
-76 -183 -225 -452 -334 -603 -232 -321 -561 -640 -856 -830 -55 -35 -113 -73
-129 -84 -32 -23 -340 -179 -436 -222 -78 -34 -295 -107 -403 -135 -43 -11
-81 -22 -85 -25 -17 -10 -303 -56 -417 -67 -201 -18 -450 -23 -575 -10 -210
22 -353 42 -371 52 -46 24 -46 27 7 352 19 117 18 150 -6 198 -29 56 -71 79
-145 79 -56 0 -67 -5 -160 -61 -146 -89 -554 -333 -596 -357 -179 -100 -331
-190 -366 -216 -76 -57 -103 -141 -69 -219 8 -18 54 -79 103 -136 117 -137
197 -234 318 -383 239 -294 427 -517 449 -532 45 -29 96 -30 146 -3 72 40 78
56 125 382 18 131 30 163 62 171 14 4 82 -2 152 -12 173 -25 747 -25 889 0 50
9 107 16 125 16 30 0 74 8 242 47 97 22 286 72 310 83 11 4 67 25 125 45 221
79 398 159 615 280 75 42 292 187 393 263 160 120 342 284 470 425 523 573
808 1179 919 1952 10 68 17 211 20 377 l4 267 -33 34 c-34 36 -81 49 -138 40z"/>
<path d="M1654 2866 c-26 -26 -34 -42 -34 -70 0 -49 17 -80 118 -216 169 -227
346 -421 527 -579 145 -127 181 -151 226 -151 45 0 94 42 104 90 12 57 -10 93
-113 181 -160 139 -190 169 -311 305 -138 155 -199 233 -280 353 -33 49 -71
97 -83 105 -13 9 -43 16 -71 16 -42 0 -54 -5 -83 -34z"/>
</g>
</svg>
